Dip1990


		Next [2007] [Dual-Audio] [English+Hindi] _Dip1990

General
Complete name                    : Next [2007] [Dual-Audio] [English+Hindi]
Genre                            : Action,Fantasy,Sci-Fi,Thriller
IMDB Rating				 : 6.1/10   47,060 votes
Format                           : Matroska
File size                        : 1.43 GiB
Duration                         : 1h 36mn
Overall bit rate                 : 2 126 Kbps
Encoded date                     : UTC 2010-09-06 10:26:50
Writing application              : mkvmerge v4.2.0 ('No Talking') built on Jul 28 2010 18:38:23
Writing library                  : libebml v1.0.0 + libmatroska v1.0.0

Video
ID                               : 1
Format                           : AVC
Format/Info                      : Advanced Video Codec
Format profile                   : High@L4.1
Format settings, CABAC           : Yes
Format settings, ReFrames        : 8 frames
Muxing mode                      : Container profile=Unknown@4.1
Codec ID                         : V_MPEG4/ISO/AVC
Duration                         : 1h 36mn
Bit rate                         : 1 885 Kbps
Width                            : 1 280 pixels
Height                           : 528 pixels
Display aspect ratio             : 2.40:1
Frame rate                       : 23.976 fps
Color space                      : YUV
Chroma subsampling               : 4:2:0
Bit depth                        : 8 bits
Scan type                        : Progressive
Bits/(Pixel*Frame)               : 0.116
Stream size                      : 1.24 GiB (87%)
Title                            : Next
Writing library                  : x264 core 80 r1376M 3feaec2
Encoding settings                : cabac=1 / ref=8 / deblock=1:-2:-2 / analyse=0x3:0x113 / me=umh / subme=9 / psy=1 / psy_rd=0.2:0.0 / mixed_ref=1 / me_range=32 / chroma_me=1 / trellis=2 / 8x8dct=1 / cqm=0 / deadzone=21,11 / fast_pskip=0 / chroma_qp_offset=-1 / threads=3 / sliced_threads=0 / slices=2 / nr=0 / decimate=0 / mbaff=0 / constrained_intra=0 / bframes=6 / b_pyramid=2 / b_adapt=2 / b_bias=0 / direct=1 / wpredb=1 / wpredp=2 / keyint=250 / keyint_min=25 / scenecut=40 / rc_lookahead=42 / rc=2pass / mbtree=1 / bitrate=1885 / ratetol=1.0 / qcomp=0.60 / qpmin=10 / qpmax=51 / qpstep=4 / cplxblur=20.0 / qblur=0.5 / ip_ratio=1.40 / aq=1:1.00

Audio #1
ID                               : 2
Format                           : MPEG Audio
Format version                   : Version 1
Format profile                   : Layer 3
Mode                             : Joint stereo
Mode extension                   : MS Stereo
Codec ID                         : A_MPEG/L3
Codec ID/Hint                    : MP3
Duration                         : 1h 36mn
Bit rate mode                    : Variable
Bit rate                         : 96.1 Kbps
Minimum bit rate                 : 32.0 Kbps
Channel(s)                       : 2 channels
Sampling rate                    : 48.0 KHz
Stream size                      : 66.1 MiB (5%)
Title                            : Next - English
Writing library                  : LAME3.98r
Encoding settings                : -m j -V 6 -q 3 -lowpass 15.6 --vbr-old -b 32

Audio #2
ID                               : 3
Format                           : MPEG Audio
Format version                   : Version 1
Format profile                   : Layer 3
Mode                             : Joint stereo
Mode extension                   : MS Stereo
Codec ID                         : A_MPEG/L3
Codec ID/Hint                    : MP3
Duration                         : 1h 36mn
Bit rate mode                    : Variable
Bit rate                         : 145 Kbps
Minimum bit rate                 : 32.0 Kbps
Channel(s)                       : 2 channels
Sampling rate                    : 48.0 KHz
Stream size                      : 99.6 MiB (7%)
Title                            : Next - Hindi
Writing library                  : LAME3.98r
Encoding settings                : -m j -V 0 -q 3 -lowpass 19.5 --vbr-old -b 32
Language                         : Hindi

Screens:
 
http://img593.imageshack.us/img593/6132/next2007720pbrripdualau.jpg 
http://img227.imageshack.us/img227/6132/next2007720pbrripdualau.jpg 
http://img683.imageshack.us/img683/6132/next2007720pbrripdualau.jpg 
http://img225.imageshack.us/img225/6132/next2007720pbrripdualau.jpg 
http://img99.imageshack.us/img99/6132/next2007720pbrripdualau.jpg 
http://img440.imageshack.us/img440/6132/next2007720pbrripdualau.jpg

Sample:

